Coordinates
version=1
nRows=10
nColumns=34
inDegrees=yes

Units are S.I. units (second, meters, Newtons, ...)
If the header above contains a line with 'inDegrees', this indicates whether rotational values are in degrees (yes) or radians (no).

endheader
time	pelvis_tilt	pelvis_list	pelvis_rotation	pelvis_tx	pelvis_ty	pelvis_tz	hip_flexion_r	hip_adduction_r	hip_rotation_r	knee_angle_r	ankle_angle_r	subtalar_angle_r	mtp_angle_r	hip_flexion_l	hip_adduction_l	hip_rotation_l	knee_angle_l	ankle_angle_l	subtalar_angle_l	mtp_angle_l	lumbar_extension	lumbar_bending	lumbar_rotation	arm_flex_r	arm_add_r	arm_rot_r	elbow_flex_r	pro_sup_r	arm_flex_l	arm_add_l	arm_rot_l	elbow_flex_l	pro_sup_l
      0.00000000	    -12.66444159	     -7.61886242	     13.54175799	      0.83215040	      0.82985391	     -0.12173899	     21.39288376	      1.15706639	    -25.30272988	      1.42124898	      2.04446121	    -10.30250706	      0.00000000	      3.51951126	     -6.89299889	     -5.85553990	      2.27410992	      9.00975857	      8.19545379	      0.00000000	      2.83870028	     10.71800069	      4.49874947	    -30.98700485	     -2.34086212	    -17.64637256	     47.81871382	     82.00401108	      7.83577240	    -14.53905424	     37.54572526	     44.73586582	     77.56392536
      0.01666670	    -15.25876426	     -8.63441588	     14.92192548	      0.84579174	      0.82601573	     -0.12226324	     24.08245641	      1.59650480	    -28.30213678	      1.24537992	      3.84663674	     -8.04973204	      0.00000000	      5.72531664	     -7.49304196	     -7.41033476	      1.69987201	      8.89079126	     10.35135714	      0.00000000	      5.52248095	     10.98673699	      3.28642095	    -30.42965115	     -1.40047436	    -18.37185552	     43.92247014	     82.16126783	      8.11853155	    -13.38847710	     33.31759271	     43.79348652	     77.07647541
      0.03333330	    -15.80510205	     -8.25885488	     15.36410905	      0.85978026	      0.82543081	     -0.12066382	     23.81637994	      1.94707415	    -30.62313590	      0.00000000	      5.15030674	     -4.28159286	      0.00000000	      5.51225588	     -7.36475646	     -9.08305350	      1.63256436	      9.37833487	     12.01041399	      0.00000000	      5.80700277	     10.39722354	      2.35540275	    -30.50166594	     -1.31321199	    -17.43692194	     43.89410958	     82.55286021	      7.85563976	    -13.89169601	     32.70515706	     44.24501441	     77.77397588
      0.05000000	    -15.70371002	     -8.74592276	     16.24711510	      0.87217363	      0.82399887	     -0.12068803	     23.39346525	      2.55583371	    -31.84431676	      0.00000000	      5.85510126	     -2.80392550	      0.00000000	      4.62678509	     -8.01313662	     -9.78034124	      1.00652845	      9.23911282	     12.55454532	      0.00000000	      5.83010895	     11.16066063	      1.75289408	    -31.15534601	     -1.24452262	    -17.97905237	     45.12457130	     82.86092943	      8.06614938	    -13.57501906	     32.25217617	     43.26460765	     78.93514181
      0.06666670	    -15.93513751	     -9.32411621	     16.97245571	      0.88332072	      0.82134693	     -0.12027957	     23.37656465	      3.18632981	    -32.05309423	      0.32592423	      6.11694857	     -3.07181887	      0.00000000	      3.96556666	     -8.66106519	     -9.88635535	      0.14725581	      9.11486016	     12.78357395	      0.00000000	      6.24513172	     11.97549719	      1.28483917	    -31.29138055	     -1.39945811	    -18.21504018	     45.39440586	     82.91116667	      8.01896874	    -13.33276731	     32.38444302	     42.97346989	     79.09633565
      0.08333330	    -16.44204133	     -9.99680085	     17.76973688	      0.89258526	      0.81797804	     -0.11946394	     23.90767653	      3.60441838	    -32.84604254	      0.75308537	      7.20354260	     -2.10752011	      0.00000000	      4.13695964	     -9.44398641	    -11.40987955	      0.00000000	     10.42019243	     15.99519069	      0.00000000	      6.92750822	     13.02722635	      1.26682890	    -32.55362992	     -0.82107626	    -20.62069320	     49.13852366	     84.09884372	      9.30159490	    -12.20435203	     33.32511105	     39.40846567	     81.08843237
      0.10000000	    -17.51290996	    -10.78849129	     18.47859347	      0.90511775	      0.81371959	     -0.11845795	     24.87634100	      3.95674555	    -33.31712349	      1.40870917	      8.59288983	     -1.61885219	      0.00000000	      4.85220347	    -10.25921927	    -12.31917012	      0.00000000	     12.08997859	     18.83648281	      0.00000000	      8.25630330	     13.86612998	      1.04011641	    -32.82067192	     -0.47272824	    -22.72799695	     50.43227520	     85.36199101	      9.78885154	    -11.81287690	     35.10699712	     37.68386472	     82.74127626
      0.11666670	    -18.26644347	    -11.46823760	     19.06130918	      0.91882838	      0.81003492	     -0.11672296	     25.21475807	      4.49732938	    -33.91881263	      1.99958191	      9.97976687	     -0.84349721	      0.00000000	      5.11868884	    -11.20022157	    -12.99944479	      0.00000000	     14.44300594	     21.96935956	      0.00000000	      9.17389283	     14.83550392	      2.78981339	    -33.92942478	      1.27255790	    -27.27620977	     52.36490788	     90.40791607	     11.57744767	    -10.90440606	     39.24275947	     34.57854479	     86.73946156
      0.13333330	    -19.14284922	    -12.11586269	     19.51277221	      0.93463274	      0.80706642	     -0.11547880	     25.35263533	      5.10247742	    -34.55607104	      2.72869000	     10.85856935	     -1.05264142	      0.00000000	      5.42928297	    -12.11247443	    -14.18316992	      0.00000000	     15.68581598	     25.12283279	      0.00000000	     10.22740002	     15.46873231	      2.25939021	    -34.15860839	      0.97573309	    -27.74748025	     54.15376935	     91.48984915	     10.73980833	    -11.02394782	     39.26428847	     34.48590716	     86.95535638
      0.15000000	    -19.94137432	    -12.66951402	     20.08801458	      0.94730850	      0.80566917	     -0.11417588	     25.11546423	      5.67458757	    -35.61506277	      3.03008479	     10.81187248	     -1.49826371	      0.00000000	      5.83381118	    -12.87269843	    -14.15294089	      0.00000000	     16.05378767	     26.64457443	      0.00000000	     11.21238906	     15.97901156	      1.82758406	    -34.25196042	      0.75575111	    -28.35919820	     55.59229116	     91.79220889	      9.82328131	    -11.08096237	     39.22053524	     34.49715387	     87.01537532
